<svg width="24" height="24" viewBox="0 0 24 24" fill="none" xmlns="http://www.w3.org/2000/svg">
<path d="M1.73248 3.73499H5.75248L8.14123 14.1937H18.6337L21.0637 6.13124L6.25123 5.92124" stroke="#1B1B1B"/>
<path d="M19.3987 16.6312H8.12623C7.96372 16.6348 7.80217 16.6054 7.65132 16.5449C7.50047 16.4844 7.36344 16.3939 7.24851 16.2789C7.13357 16.164 7.0431 16.027 6.98255 15.8761C6.92201 15.7253 6.89264 15.5637 6.89623 15.4012C6.89623 14.1937 8.14123 14.1937 8.14123 14.1937" stroke="#1B1B1B"/>
<path d="M9.35622 20.6775C10.0873 20.6775 10.68 20.0849 10.68 19.3538C10.68 18.6227 10.0873 18.03 9.35622 18.03C8.62513 18.03 8.03247 18.6227 8.03247 19.3538C8.03247 20.0849 8.62513 20.6775 9.35622 20.6775Z" stroke="#1B1B1B"/>
<path d="M17.265 20.6775C17.9961 20.6775 18.5887 20.0849 18.5887 19.3538C18.5887 18.6227 17.9961 18.03 17.265 18.03C16.5339 18.03 15.9412 18.6227 15.9412 19.3538C15.9412 20.0849 16.5339 20.6775 17.265 20.6775Z" stroke="#1B1B1B"/>
</svg>
